# xmcd
#
# Track frame offsets:
# 150
# 20709
# 43680
# 62161
# 83002
# 86466
# 104220
# 117928
# 123120
# 148899
# 167560
# 177262
# 193717
# 211957
# 227771
# 246653
# 256018
# 272097
# 292780
#
# Disc length: 4074 seconds
#
#
# Revision: 0
# Processed by: cddbd v1.5.2PL0 Copyright (c) Steve Scherf et al.
# Submitted via: FreeRIP 2.941 
#
DISCID=140fe813
DTITLE=Coffee Creek - 6-11-92 Cicero's Basement [CD2]
DYEAR=1992
DGENRE=boots
TTITLE0=Thanks A Lot
TTITLE1=Are You Ready for the Country
TTITLE2=Texas Me
TTITLE3=Mendocino
TTITLE4=intro
TTITLE5=Movin' On
TTITLE6=Can't Find My Way Back to Texas
TTITLE7=instrumental
TTITLE8=She's About a Mover
TTITLE9=Waltz Across Texas
TTITLE10=Buckaroo
TTITLE11=Tonight the Bottle Let Me Down
TTITLE12=Streets of Baltimore
TTITLE13=Drugstore Truck Driving Man
TTITLE14=Misery and Gin
TTITLE15=Nashville West
TTITLE16=Willin'
TTITLE17=Wild and Blue
TTITLE18=Truck Driving Man
EXTD=Coffee Creek Is: \nBrian Henneman\nJay Farrar\nJeff Tweedy\nMike Heidorn 
EXTT0=
EXTT1=
EXTT2=
EXTT3=
EXTT4=
EXTT5=
EXTT6=
EXTT7=
EXTT8=
EXTT9=
EXTT10=
EXTT11=
EXTT12=
EXTT13=
EXTT14=
EXTT15=
EXTT16=
EXTT17=
EXTT18=
PLAYORDER=
